  0
SECTION
  2
HEADER
  9
$ACADVER
  1
AC1014
  9
$HANDSEED
  5
FFFF
  9
$MEASUREMENT
 70
     1
  0
ENDSEC
  0
SECTION
  2
TABLES
  0
TABLE
  2
VPORT
  5
8
330
0
100
AcDbSymbolTable
 70
     4
  0
VPORT
  5
2E
330
8
100
AcDbSymbolTableRecord
100
AcDbViewportTableRecord
  2
*ACTIVE
 70
     0
 10
0.0
 20
0.0
 11
1.0
 21
1.0
 12
210.0
 22
148.5
 13
0.0
 23
0.0
 14
10.0
 24
10.0
 15
10.0
 25
10.0
 16
0.0
 26
0.0
 36
1.0
 17
0.0
 27
0.0
 37
0.0
 40
341.0
 41
1.24
 42
50.0
 43
0.0
 44
0.0
 50
0.0
 51
0.0
 71
     0
 72
   100
 73
     1
 74
     3
 75
     0
 76
     0
 77
     0
 78
     0
  0
ENDTAB
  0
TABLE
  2
LTYPE
  5
5
330
0
100
AcDbSymbolTable
 70
     1
  0
LTYPE
  5
14
330
5
100
AcDbSymbolTableRecord
100
AcDbLinetypeTableRecord
  2
BYBLOCK
 70
     0
  3

 72
    65
 73
     0
 40
0.0
  0
LTYPE
  5
15
330
5
100
AcDbSymbolTableRecord
100
AcDbLinetypeTableRecord
  2
BYLAYER
 70
     0
  3

 72
    65
 73
     0
 40
0.0
  0
LTYPE
  5
16
330
5
100
AcDbSymbolTableRecord
100
AcDbLinetypeTableRecord
  2
CONTINUOUS
 70
     0
  3
Solid line
 72
    65
 73
     0
 40
0.0
  0
ENDTAB
  0
TABLE
  2
LAYER
  5
2
100
AcDbSymbolTable
 70
1
  0
LAYER
  5
50
100
AcDbSymbolTableRecord
100
AcDbLayerTableRecord
  2
0
 70
0
  6
CONTINUOUS
  0
ENDTAB
  0
TABLE
  2
STYLE
  5
3
330
0
100
AcDbSymbolTable
 70
     1
  0
STYLE
  5
11
330
3
100
AcDbSymbolTableRecord
100
AcDbTextStyleTableRecord
  2
STANDARD
 70
     0
 40
0.0
 41
1.0
 50
0.0
 71
     0
 42
2.5
  3
txt
  4

  0
ENDTAB
  0
TABLE
  2
VIEW
  5
6
330
0
100
AcDbSymbolTable
 70
     0
  0
ENDTAB
  0
TABLE
  2
UCS
  5
7
330
0
100
AcDbSymbolTable
 70
     0
  0
ENDTAB
  0
TABLE
  2
APPID
  5
9
330
0
100
AcDbSymbolTable
 70
     2
  0
APPID
  5
12
330
9
100
AcDbSymbolTableRecord
100
AcDbRegAppTableRecord
  2
ACAD
 70
     0
  0
ENDTAB
  0
TABLE
  2
DIMSTYLE
  5
A
330
0
100
AcDbSymbolTable
 70
     1
  0
DIMSTYLE
105
27
330
A
100
AcDbSymbolTableRecord
100
AcDbDimStyleTableRecord
  2
ISO-25
 70
     0
  3

  4

  5

  6

  7

 40
1.0
 41
2.5
 42
0.625
 43
3.75
 44
1.25
 45
0.0
 46
0.0
 47
0.0
 48
0.0
140
2.5
141
2.5
142
0.0
143
0.03937007874016
144
1.0
145
0.0
146
1.0
147
0.625
 71
     0
 72
     0
 73
     0
 74
     0
 75
     0
 76
     0
 77
     1
 78
     8
170
     0
171
     3
172
     1
173
     0
174
     0
175
     0
176
     0
177
     0
178
     0
270
     2
271
     2
272
     2
273
     2
274
     3
340
11
275
     0
280
     0
281
     0
282
     0
283
     0
284
     8
285
     0
286
     0
287
     3
288
     0
  0
ENDTAB
  0
TABLE
  2
BLOCK_RECORD
  5
1
330
0
100
AcDbSymbolTable
 70
     1
  0
BLOCK_RECORD
  5
1F
330
1
100
AcDbSymbolTableRecord
100
AcDbBlockTableRecord
  2
*MODEL_SPACE
  0
BLOCK_RECORD
  5
1B
330
1
100
AcDbSymbolTableRecord
100
AcDbBlockTableRecord
  2
*PAPER_SPACE
  0
ENDTAB
  0
ENDSEC
  0
SECTION
  2
BLOCKS
  0
BLOCK
  5
20
330
1F
100
AcDbEntity
  8
0
100
AcDbBlockBegin
  2
*MODEL_SPACE
 70
     0
 10
0.0
 20
0.0
 30
0.0
  3
*MODEL_SPACE
  1

  0
ENDBLK
  5
21
330
1F
100
AcDbEntity
  8
0
100
AcDbBlockEnd
  0
BLOCK
  5
1C
330
1B
100
AcDbEntity
 67
     1
  8
0
100
AcDbBlockBegin
  2
*PAPER_SPACE
  1

  0
ENDBLK
  5
1D
330
1B
100
AcDbEntity
 67
     1
  8
0
100
AcDbBlockEnd
  0
ENDSEC
  0
SECTION
  2
ENTITIES
  0
SPLINE
  5
100
100
AcDbEntity
  8
0
 62
7
100
AcDbSpline
 70
8
 71
3
 72
8
 73
4
 74
0
 40
0
 40
0
 40
0
 40
0
 40
1
 40
1
 40
1
 40
1
 10
473.656545
 20
28.372879
 30
0.0
 10
473.658481
 20
30.703427
 30
0.0
 10
472.416260
 20
32.857771
 30
0.0
 10
470.398268
 20
34.023605
 30
0.0
  0
SPLINE
  5
101
100
AcDbEntity
  8
0
 62
7
100
AcDbSpline
 70
8
 71
3
 72
8
 73
4
 74
0
 40
0
 40
0
 40
0
 40
0
 40
1
 40
1
 40
1
 40
1
 10
470.398268
 20
34.023605
 30
0.0
 10
468.380276
 20
35.189438
 30
0.0
 10
465.893449
 20
35.189438
 30
0.0
 10
463.875457
 20
34.023605
 30
0.0
  0
SPLINE
  5
102
100
AcDbEntity
  8
0
 62
7
100
AcDbSpline
 70
8
 71
3
 72
8
 73
4
 74
0
 40
0
 40
0
 40
0
 40
0
 40
1
 40
1
 40
1
 40
1
 10
463.875457
 20
34.023605
 30
0.0
 10
461.857465
 20
32.857771
 30
0.0
 10
460.615244
 20
30.703427
 30
0.0
 10
460.617180
 20
28.372879
 30
0.0
  0
SPLINE
  5
103
100
AcDbEntity
  8
0
 62
7
100
AcDbSpline
 70
8
 71
3
 72
8
 73
4
 74
0
 40
0
 40
0
 40
0
 40
0
 40
1
 40
1
 40
1
 40
1
 10
460.617180
 20
28.372879
 30
0.0
 10
460.615244
 20
26.042330
 30
0.0
 10
461.857465
 20
23.887986
 30
0.0
 10
463.875457
 20
22.722153
 30
0.0
  0
SPLINE
  5
104
100
AcDbEntity
  8
0
 62
7
100
AcDbSpline
 70
8
 71
3
 72
8
 73
4
 74
0
 40
0
 40
0
 40
0
 40
0
 40
1
 40
1
 40
1
 40
1
 10
463.875457
 20
22.722153
 30
0.0
 10
465.893449
 20
21.556319
 30
0.0
 10
468.380276
 20
21.556319
 30
0.0
 10
470.398268
 20
22.722153
 30
0.0
  0
SPLINE
  5
105
100
AcDbEntity
  8
0
 62
7
100
AcDbSpline
 70
8
 71
3
 72
8
 73
4
 74
0
 40
0
 40
0
 40
0
 40
0
 40
1
 40
1
 40
1
 40
1
 10
470.398268
 20
22.722153
 30
0.0
 10
472.416260
 20
23.887986
 30
0.0
 10
473.658481
 20
26.042330
 30
0.0
 10
473.656545
 20
28.372879
 30
0.0
  0
SPLINE
  5
106
100
AcDbEntity
  8
0
 62
7
100
AcDbSpline
 70
8
 71
3
 72
8
 73
4
 74
0
 40
0
 40
0
 40
0
 40
0
 40
1
 40
1
 40
1
 40
1
 10
566.675586
 20
205.538254
 30
0.0
 10
566.675586
 20
207.867513
 30
0.0
 10
565.432941
 20
210.019837
 30
0.0
 10
563.415743
 20
211.184467
 30
0.0
  0
SPLINE
  5
107
100
AcDbEntity
  8
0
 62
7
100
AcDbSpline
 70
8
 71
3
 72
8
 73
4
 74
0
 40
0
 40
0
 40
0
 40
0
 40
1
 40
1
 40
1
 40
1
 10
563.415743
 20
211.184467
 30
0.0
 10
561.398546
 20
212.349096
 30
0.0
 10
558.913256
 20
212.349096
 30
0.0
 10
556.896058
 20
211.184467
 30
0.0
  0
SPLINE
  5
108
100
AcDbEntity
  8
0
 62
7
100
AcDbSpline
 70
8
 71
3
 72
8
 73
4
 74
0
 40
0
 40
0
 40
0
 40
0
 40
1
 40
1
 40
1
 40
1
 10
556.896058
 20
211.184467
 30
0.0
 10
554.878861
 20
210.019837
 30
0.0
 10
553.636216
 20
207.867513
 30
0.0
 10
553.636216
 20
205.538254
 30
0.0
  0
SPLINE
  5
109
100
AcDbEntity
  8
0
 62
7
100
AcDbSpline
 70
8
 71
3
 72
8
 73
4
 74
0
 40
0
 40
0
 40
0
 40
0
 40
1
 40
1
 40
1
 40
1
 10
553.636216
 20
205.538254
 30
0.0
 10
553.636216
 20
203.208995
 30
0.0
 10
554.878861
 20
201.056670
 30
0.0
 10
556.896058
 20
199.892041
 30
0.0
  0
SPLINE
  5
10a
100
AcDbEntity
  8
0
 62
7
100
AcDbSpline
 70
8
 71
3
 72
8
 73
4
 74
0
 40
0
 40
0
 40
0
 40
0
 40
1
 40
1
 40
1
 40
1
 10
556.896058
 20
199.892041
 30
0.0
 10
558.913256
 20
198.727411
 30
0.0
 10
561.398546
 20
198.727411
 30
0.0
 10
563.415743
 20
199.892041
 30
0.0
  0
SPLINE
  5
10b
100
AcDbEntity
  8
0
 62
7
100
AcDbSpline
 70
8
 71
3
 72
8
 73
4
 74
0
 40
0
 40
0
 40
0
 40
0
 40
1
 40
1
 40
1
 40
1
 10
563.415743
 20
199.892041
 30
0.0
 10
565.432941
 20
201.056670
 30
0.0
 10
566.675586
 20
203.208995
 30
0.0
 10
566.675586
 20
205.538254
 30
0.0
  0
LWPOLYLINE
  5
10c
100
AcDbEntity
  8
0
 62
7
100
AcDbPolyline
 90
1
 70
1
 10
473.656545
 20
28.372879
 30
0.0
  0
SPLINE
  5
10d
100
AcDbEntity
  8
0
 62
7
100
AcDbSpline
 70
8
 71
3
 72
8
 73
4
 74
0
 40
0
 40
0
 40
0
 40
0
 40
1
 40
1
 40
1
 40
1
 10
484.144732
 20
154.089454
 30
0.0
 10
484.144733
 20
160.165782
 30
0.0
 10
480.903050
 20
165.780541
 30
0.0
 10
475.640796
 20
168.818705
 30
0.0
  0
SPLINE
  5
10e
100
AcDbEntity
  8
0
 62
7
100
AcDbSpline
 70
8
 71
3
 72
8
 73
4
 74
0
 40
0
 40
0
 40
0
 40
0
 40
1
 40
1
 40
1
 40
1
 10
475.640796
 20
168.818705
 30
0.0
 10
470.378541
 20
171.856869
 30
0.0
 10
463.895176
 20
171.856869
 30
0.0
 10
458.632922
 20
168.818705
 30
0.0
  0
SPLINE
  5
10f
100
AcDbEntity
  8
0
 62
7
100
AcDbSpline
 70
8
 71
3
 72
8
 73
4
 74
0
 40
0
 40
0
 40
0
 40
0
 40
1
 40
1
 40
1
 40
1
 10
458.632922
 20
168.818705
 30
0.0
 10
453.370667
 20
165.780541
 30
0.0
 10
450.128985
 20
160.165782
 30
0.0
 10
450.128985
 20
154.089454
 30
0.0
  0
SPLINE
  5
110
100
AcDbEntity
  8
0
 62
7
100
AcDbSpline
 70
8
 71
3
 72
8
 73
4
 74
0
 40
0
 40
0
 40
0
 40
0
 40
1
 40
1
 40
1
 40
1
 10
450.128985
 20
154.089454
 30
0.0
 10
450.128985
 20
148.013126
 30
0.0
 10
453.370667
 20
142.398367
 30
0.0
 10
458.632922
 20
139.360203
 30
0.0
  0
SPLINE
  5
111
100
AcDbEntity
  8
0
 62
7
100
AcDbSpline
 70
8
 71
3
 72
8
 73
4
 74
0
 40
0
 40
0
 40
0
 40
0
 40
1
 40
1
 40
1
 40
1
 10
458.632922
 20
139.360203
 30
0.0
 10
463.895176
 20
136.322039
 30
0.0
 10
470.378541
 20
136.322039
 30
0.0
 10
475.640796
 20
139.360203
 30
0.0
  0
SPLINE
  5
112
100
AcDbEntity
  8
0
 62
7
100
AcDbSpline
 70
8
 71
3
 72
8
 73
4
 74
0
 40
0
 40
0
 40
0
 40
0
 40
1
 40
1
 40
1
 40
1
 10
475.640796
 20
139.360203
 30
0.0
 10
480.903050
 20
142.398367
 30
0.0
 10
484.144732
 20
148.013126
 30
0.0
 10
484.144732
 20
154.089454
 30
0.0
  0
LWPOLYLINE
  5
113
100
AcDbEntity
  8
0
 62
7
100
AcDbPolyline
 90
1
 70
1
 10
566.675586
 20
205.538254
 30
0.0
  0
SPLINE
  5
114
100
AcDbEntity
  8
0
 62
7
100
AcDbSpline
 70
8
 71
3
 72
8
 73
4
 74
0
 40
0
 40
0
 40
0
 40
0
 40
1
 40
1
 40
1
 40
1
 10
380.637509
 20
205.538254
 30
0.0
 10
380.637509
 20
207.867513
 30
0.0
 10
379.394864
 20
210.019837
 30
0.0
 10
377.377666
 20
211.184467
 30
0.0
  0
SPLINE
  5
115
100
AcDbEntity
  8
0
 62
7
100
AcDbSpline
 70
8
 71
3
 72
8
 73
4
 74
0
 40
0
 40
0
 40
0
 40
0
 40
1
 40
1
 40
1
 40
1
 10
377.377666
 20
211.184467
 30
0.0
 10
375.360469
 20
212.349096
 30
0.0
 10
372.875179
 20
212.349096
 30
0.0
 10
370.857981
 20
211.184467
 30
0.0
  0
SPLINE
  5
116
100
AcDbEntity
  8
0
 62
7
100
AcDbSpline
 70
8
 71
3
 72
8
 73
4
 74
0
 40
0
 40
0
 40
0
 40
0
 40
1
 40
1
 40
1
 40
1
 10
370.857981
 20
211.184467
 30
0.0
 10
368.840784
 20
210.019837
 30
0.0
 10
367.598139
 20
207.867513
 30
0.0
 10
367.598139
 20
205.538254
 30
0.0
  0
SPLINE
  5
117
100
AcDbEntity
  8
0
 62
7
100
AcDbSpline
 70
8
 71
3
 72
8
 73
4
 74
0
 40
0
 40
0
 40
0
 40
0
 40
1
 40
1
 40
1
 40
1
 10
367.598139
 20
205.538254
 30
0.0
 10
367.598139
 20
203.208995
 30
0.0
 10
368.840784
 20
201.056670
 30
0.0
 10
370.857982
 20
199.892041
 30
0.0
  0
SPLINE
  5
118
100
AcDbEntity
  8
0
 62
7
100
AcDbSpline
 70
8
 71
3
 72
8
 73
4
 74
0
 40
0
 40
0
 40
0
 40
0
 40
1
 40
1
 40
1
 40
1
 10
370.857982
 20
199.892041
 30
0.0
 10
372.875179
 20
198.727411
 30
0.0
 10
375.360469
 20
198.727411
 30
0.0
 10
377.377667
 20
199.892041
 30
0.0
  0
SPLINE
  5
119
100
AcDbEntity
  8
0
 62
7
100
AcDbSpline
 70
8
 71
3
 72
8
 73
4
 74
0
 40
0
 40
0
 40
0
 40
0
 40
1
 40
1
 40
1
 40
1
 10
377.377667
 20
199.892041
 30
0.0
 10
379.394864
 20
201.056670
 30
0.0
 10
380.637509
 20
203.208995
 30
0.0
 10
380.637509
 20
205.538254
 30
0.0
  0
LWPOLYLINE
  5
11a
100
AcDbEntity
  8
0
 62
7
100
AcDbPolyline
 90
1
 70
1
 10
484.144732
 20
154.089454
 30
0.0
  0
LWPOLYLINE
  5
11b
100
AcDbEntity
  8
0
 62
7
100
AcDbPolyline
 90
1
 70
1
 10
380.637509
 20
205.538254
 30
0.0
  0
LWPOLYLINE
  5
11c
100
AcDbEntity
  8
0
 62
7
100
AcDbPolyline
 90
2
 70
0
 10
535.111665
 20
34.042204
 30
0.0
 10
535.111665
 20
80.607079
 30
0.0
  0
LWPOLYLINE
  5
11d
100
AcDbEntity
  8
0
 62
7
100
AcDbPolyline
 90
2
 70
0
 10
399.162060
 20
34.042204
 30
0.0
 10
399.162060
 20
80.607079
 30
0.0
  0
LWPOLYLINE
  5
11e
100
AcDbEntity
  8
0
 62
7
100
AcDbPolyline
 90
2
 70
0
 10
484.144732
 20
31.207579
 30
0.0
 10
532.277019
 20
31.207579
 30
0.0
  0
SPLINE
  5
11f
100
AcDbEntity
  8
0
 62
7
100
AcDbSpline
 70
8
 71
3
 72
8
 73
4
 74
0
 40
0
 40
0
 40
0
 40
0
 40
1
 40
1
 40
1
 40
1
 10
484.144732
 20
31.207579
 30
0.0
 10
483.392929
 20
31.207577
 30
0.0
 10
482.671919
 20
30.908920
 30
0.0
 10
482.140320
 20
30.377309
 30
0.0
  0
SPLINE
  5
120
100
AcDbEntity
  8
0
 62
7
100
AcDbSpline
 70
8
 71
3
 72
8
 73
4
 74
0
 40
0
 40
0
 40
0
 40
0
 40
1
 40
1
 40
1
 40
1
 10
482.140320
 20
30.377309
 30
0.0
 10
481.608720
 20
29.845698
 30
0.0
 10
481.310078
 20
29.124682
 30
0.0
 10
481.310092
 20
28.372879
 30
0.0
  0
SPLINE
  5
121
100
AcDbEntity
  8
0
 62
7
100
AcDbSpline
 70
8
 71
3
 72
8
 73
4
 74
0
 40
0
 40
0
 40
0
 40
0
 40
1
 40
1
 40
1
 40
1
 10
452.963632
 20
28.372879
 30
0.0
 10
452.963647
 20
29.124683
 30
0.0
 10
452.665004
 20
29.845701
 30
0.0
 10
452.133402
 20
30.377312
 30
0.0
  0
SPLINE
  5
122
100
AcDbEntity
  8
0
 62
7
100
AcDbSpline
 70
8
 71
3
 72
8
 73
4
 74
0
 40
0
 40
0
 40
0
 40
0
 40
1
 40
1
 40
1
 40
1
 10
452.133402
 20
30.377312
 30
0.0
 10
451.601801
 20
30.908923
 30
0.0
 10
450.880789
 20
31.207579
 30
0.0
 10
450.128985
 20
31.207579
 30
0.0
  0
SPLINE
  5
123
100
AcDbEntity
  8
0
 62
7
100
AcDbSpline
 70
8
 71
3
 72
8
 73
4
 74
0
 40
0
 40
0
 40
0
 40
0
 40
1
 40
1
 40
1
 40
1
 10
399.162060
 20
80.607079
 30
0.0
 10
399.162045
 20
81.377067
 30
0.0
 10
398.848795
 20
82.113919
 30
0.0
 10
398.294340
 20
82.648204
 30
0.0
  0
SPLINE
  5
124
100
AcDbEntity
  8
0
 62
7
100
AcDbSpline
 70
8
 71
3
 72
8
 73
4
 74
0
 40
0
 40
0
 40
0
 40
0
 40
1
 40
1
 40
1
 40
1
 10
372.161505
 20
182.774329
 30
0.0
 10
373.360634
 20
186.744628
 30
0.0
 10
371.520793
 20
191.000849
 30
0.0
 10
367.807162
 20
192.847504
 30
0.0
  0
SPLINE
  5
125
100
AcDbEntity
  8
0
 62
7
100
AcDbSpline
 70
8
 71
3
 72
8
 73
4
 74
0
 40
0
 40
0
 40
0
 40
0
 40
1
 40
1
 40
1
 40
1
 10
381.513705
 20
217.628779
 30
0.0
 10
385.051699
 20
215.464566
 30
0.0
 10
389.634855
 20
216.168237
 30
0.0
 10
392.360632
 20
219.294154
 30
0.0
  0
SPLINE
  5
126
100
AcDbEntity
  8
0
 62
7
100
AcDbSpline
 70
8
 71
3
 72
8
 73
4
 74
0
 40
0
 40
0
 40
0
 40
0
 40
1
 40
1
 40
1
 40
1
 10
541.913093
 20
219.294154
 30
0.0
 10
544.638870
 20
216.168240
 30
0.0
 10
549.222023
 20
215.464569
 30
0.0
 10
552.760015
 20
217.628779
 30
0.0
  0
SPLINE
  5
127
100
AcDbEntity
  8
0
 62
7
100
AcDbSpline
 70
8
 71
3
 72
8
 73
4
 74
0
 40
0
 40
0
 40
0
 40
0
 40
1
 40
1
 40
1
 40
1
 10
566.466564
 20
192.847504
 30
0.0
 10
571.133282
 20
195.167885
 30
0.0
 10
574.150034
 20
199.862265
 30
0.0
 10
574.321876
 20
205.071190
 30
0.0
  0
SPLINE
  5
128
100
AcDbEntity
  8
0
 62
7
100
AcDbSpline
 70
8
 71
3
 72
8
 73
4
 74
0
 40
0
 40
0
 40
0
 40
0
 40
1
 40
1
 40
1
 40
1
 10
574.321876
 20
205.071190
 30
0.0
 10
574.493719
 20
210.280115
 30
0.0
 10
571.792925
 20
215.163117
 30
0.0
 10
567.289286
 20
217.786028
 30
0.0
  0
SPLINE
  5
129
100
AcDbEntity
  8
0
 62
7
100
AcDbSpline
 70
8
 71
3
 72
8
 73
4
 74
0
 40
0
 40
0
 40
0
 40
0
 40
1
 40
1
 40
1
 40
1
 10
567.289286
 20
217.786028
 30
0.0
 10
562.785647
 20
220.408939
 30
0.0
 10
557.205831
 20
220.348549
 30
0.0
 10
552.760015
 20
217.628779
 30
0.0
  0
SPLINE
  5
12a
100
AcDbEntity
  8
0
 62
7
100
AcDbSpline
 70
8
 71
3
 72
8
 73
4
 74
0
 40
0
 40
0
 40
0
 40
0
 40
1
 40
1
 40
1
 40
1
 10
566.466564
 20
192.847504
 30
0.0
 10
562.752932
 20
191.000850
 30
0.0
 10
560.913088
 20
186.744629
 30
0.0
 10
562.112217
 20
182.774329
 30
0.0
  0
SPLINE
  5
12b
100
AcDbEntity
  8
0
 62
7
100
AcDbSpline
 70
8
 71
3
 72
8
 73
4
 74
0
 40
0
 40
0
 40
0
 40
0
 40
1
 40
1
 40
1
 40
1
 10
535.979381
 20
82.648204
 30
0.0
 10
535.424927
 20
82.113918
 30
0.0
 10
535.111679
 20
81.377066
 30
0.0
 10
535.111665
 20
80.607079
 30
0.0
  0
SPLINE
  5
12c
100
AcDbEntity
  8
0
 62
7
100
AcDbSpline
 70
8
 71
3
 72
8
 73
4
 74
0
 40
0
 40
0
 40
0
 40
0
 40
1
 40
1
 40
1
 40
1
 10
532.277019
 20
31.207579
 30
0.0
 10
533.842543
 20
31.207579
 30
0.0
 10
535.111653
 20
32.476680
 30
0.0
 10
535.111665
 20
34.042204
 30
0.0
  0
SPLINE
  5
12d
100
AcDbEntity
  8
0
 62
7
100
AcDbSpline
 70
8
 71
3
 72
8
 73
4
 74
0
 40
0
 40
0
 40
0
 40
0
 40
1
 40
1
 40
1
 40
1
 10
399.162060
 20
34.042204
 30
0.0
 10
399.162072
 20
32.476680
 30
0.0
 10
400.431183
 20
31.207578
 30
0.0
 10
401.996707
 20
31.207579
 30
0.0
  0
SPLINE
  5
12e
100
AcDbEntity
  8
0
 62
7
100
AcDbSpline
 70
8
 71
3
 72
8
 73
4
 74
0
 40
0
 40
0
 40
0
 40
0
 40
1
 40
1
 40
1
 40
1
 10
541.913093
 20
219.294154
 30
0.0
 10
523.071748
 20
240.901255
 30
0.0
 10
495.805018
 20
253.302037
 30
0.0
 10
467.136863
 20
253.302037
 30
0.0
  0
SPLINE
  5
12f
100
AcDbEntity
  8
0
 62
7
100
AcDbSpline
 70
8
 71
3
 72
8
 73
4
 74
0
 40
0
 40
0
 40
0
 40
0
 40
1
 40
1
 40
1
 40
1
 10
467.136863
 20
253.302037
 30
0.0
 10
438.468708
 20
253.302037
 30
0.0
 10
411.201978
 20
240.901255
 30
0.0
 10
392.360632
 20
219.294154
 30
0.0
  0
SPLINE
  5
130
100
AcDbEntity
  8
0
 62
7
100
AcDbSpline
 70
8
 71
3
 72
8
 73
4
 74
0
 40
0
 40
0
 40
0
 40
0
 40
1
 40
1
 40
1
 40
1
 10
372.161505
 20
182.774329
 30
0.0
 10
361.398844
 20
147.139298
 30
0.0
 10
371.489380
 20
108.478117
 30
0.0
 10
398.294340
 20
82.648204
 30
0.0
  0
SPLINE
  5
131
100
AcDbEntity
  8
0
 62
7
100
AcDbSpline
 70
8
 71
3
 72
8
 73
4
 74
0
 40
0
 40
0
 40
0
 40
0
 40
1
 40
1
 40
1
 40
1
 10
535.979381
 20
82.648204
 30
0.0
 10
562.784341
 20
108.478117
 30
0.0
 10
572.874877
 20
147.139298
 30
0.0
 10
562.112217
 20
182.774329
 30
0.0
  0
SPLINE
  5
132
100
AcDbEntity
  8
0
 62
7
100
AcDbSpline
 70
8
 71
3
 72
8
 73
4
 74
0
 40
0
 40
0
 40
0
 40
0
 40
1
 40
1
 40
1
 40
1
 10
381.513705
 20
217.628779
 30
0.0
 10
377.067889
 20
220.348563
 30
0.0
 10
371.488063
 20
220.408961
 30
0.0
 10
366.984416
 20
217.786048
 30
0.0
  0
SPLINE
  5
133
100
AcDbEntity
  8
0
 62
7
100
AcDbSpline
 70
8
 71
3
 72
8
 73
4
 74
0
 40
0
 40
0
 40
0
 40
0
 40
1
 40
1
 40
1
 40
1
 10
366.984416
 20
217.786048
 30
0.0
 10
362.480768
 20
215.163136
 30
0.0
 10
359.779971
 20
210.280125
 30
0.0
 10
359.951819
 20
205.071192
 30
0.0
  0
SPLINE
  5
134
100
AcDbEntity
  8
0
 62
7
100
AcDbSpline
 70
8
 71
3
 72
8
 73
4
 74
0
 40
0
 40
0
 40
0
 40
0
 40
1
 40
1
 40
1
 40
1
 10
359.951819
 20
205.071192
 30
0.0
 10
360.123667
 20
199.862260
 30
0.0
 10
363.140431
 20
195.167877
 30
0.0
 10
367.807163
 20
192.847504
 30
0.0
  0
SPLINE
  5
135
100
AcDbEntity
  8
0
 62
7
100
AcDbSpline
 70
8
 71
3
 72
8
 73
4
 74
0
 40
0
 40
0
 40
0
 40
0
 40
1
 40
1
 40
1
 40
1
 10
452.963634
 20
28.372879
 30
0.0
 10
452.963634
 20
23.309272
 30
0.0
 10
455.665036
 20
18.630306
 30
0.0
 10
460.050248
 20
16.098503
 30
0.0
  0
SPLINE
  5
136
100
AcDbEntity
  8
0
 62
7
100
AcDbSpline
 70
8
 71
3
 72
8
 73
4
 74
0
 40
0
 40
0
 40
0
 40
0
 40
1
 40
1
 40
1
 40
1
 10
460.050248
 20
16.098503
 30
0.0
 10
464.435460
 20
13.566699
 30
0.0
 10
469.838265
 20
13.566699
 30
0.0
 10
474.223477
 20
16.098503
 30
0.0
  0
SPLINE
  5
137
100
AcDbEntity
  8
0
 62
7
100
AcDbSpline
 70
8
 71
3
 72
8
 73
4
 74
0
 40
0
 40
0
 40
0
 40
0
 40
1
 40
1
 40
1
 40
1
 10
474.223477
 20
16.098503
 30
0.0
 10
478.608689
 20
18.630306
 30
0.0
 10
481.310091
 20
23.309272
 30
0.0
 10
481.310091
 20
28.372879
 30
0.0
  0
LWPOLYLINE
  5
138
100
AcDbEntity
  8
0
 62
7
100
AcDbPolyline
 90
2
 70
0
 10
401.996707
 20
31.207579
 30
0.0
 10
450.128985
 20
31.207579
 30
0.0
  0
ENDSEC
  0
SECTION
  2
OBJECTS
  0
DICTIONARY
  5
C
330
0
100
AcDbDictionary
  3
ACAD_GROUP
350
D
  3
ACAD_MLINESTYLE
350
17
  0
DICTIONARY
  5
D
330
C
100
AcDbDictionary
  0
DICTIONARY
  5
1A
330
C
100
AcDbDictionary
  0
DICTIONARY
  5
17
330
C
100
AcDbDictionary
  3
STANDARD
350
18
  0
DICTIONARY
  5
19
330
C
100
AcDbDictionary
  0
ENDSEC
  0
EOF
