<?xml version="1.0" encoding="UTF-8" standalone="no"?>
<svg
   xmlns:dc="http://purl.org/dc/elements/1.1/"
   xmlns:cc="http://creativecommons.org/ns#"
   xmlns:rdf="http://www.w3.org/1999/02/22-rdf-syntax-ns#"
   xmlns:svg="http://www.w3.org/2000/svg"
   xmlns="http://www.w3.org/2000/svg"
   xmlns:sodipodi="http://sodipodi.sourceforge.net/DTD/sodipodi-0.dtd"
   xmlns:inkscape="http://www.inkscape.org/namespaces/inkscape"
   width="793.700787402"
   height="1122.51968504"
   version="1.1"
   id="svg85"
   sodipodi:docname="MotorCoverOUTLINE.svg"
   inkscape:version="0.92.4 (5da689c313, 2019-01-14)">
  <metadata
     id="metadata89">
    <rdf:RDF>
      <cc:Work
         rdf:about="">
        <dc:format>image/svg+xml</dc:format>
        <dc:type
           rdf:resource="http://purl.org/dc/dcmitype/StillImage" />
        <dc:title></dc:title>
      </cc:Work>
    </rdf:RDF>
  </metadata>
  <sodipodi:namedview
     pagecolor="#ffffff"
     bordercolor="#666666"
     borderopacity="1"
     objecttolerance="10"
     gridtolerance="10"
     guidetolerance="10"
     inkscape:pageopacity="0"
     inkscape:pageshadow="2"
     inkscape:window-width="1920"
     inkscape:window-height="986"
     id="namedview87"
     showgrid="false"
     inkscape:zoom="0.67972084"
     inkscape:cx="396.8504"
     inkscape:cy="-86.064744"
     inkscape:window-x="-11"
     inkscape:window-y="-11"
     inkscape:window-maximized="1"
     inkscape:current-layer="g83" />
  <desc
     id="desc10">C:\Users\vk9335uy\Desktop\Project\Schematics &amp; Datasheets\Motor Cover\ProperCover\MotorCoverOUTLINE.DXF - scale = 1.000000, origin = (0.000000, 0.000000), method = file</desc>
  <defs
     id="defs25">
    <marker
       id="DistanceX"
       orient="auto"
       refX="0.0"
       refY="0.0"
       style="overflow:visible">
      <path
         d="M 3,-3 L -3,3 M 0,-5 L  0,5"
         style="stroke:#000000; stroke-width:0.5"
         id="path12" />
    </marker>
    <pattern
       height="8"
       id="Hatch"
       patternUnits="userSpaceOnUse"
       width="8"
       x="0"
       y="0">
      <path
         d="M8 4 l-4,4"
         linecap="square"
         stroke="#000000"
         stroke-width="0.25"
         id="path15" />
      <path
         d="M6 2 l-4,4"
         linecap="square"
         stroke="#000000"
         stroke-width="0.25"
         id="path17" />
      <path
         d="M4 0 l-4,4"
         linecap="square"
         stroke="#000000"
         stroke-width="0.25"
         id="path19" />
    </pattern>
    <symbol
       id="*Model_Space" />
    <symbol
       id="*Paper_Space" />
    <symbol
       id="*Paper_Space0" />
  </defs>
  <g
     inkscape:groupmode="layer"
     inkscape:label="0"
     id="g83">
    <g
       id="g115"
       transform="translate(748.83683,-278.05533)">
      <path
         id="path27"
         style="fill:none;stroke:#000000;stroke-width:0.89999998;stroke-linecap:round"
         d="m -115.2189,1357.7189 a 8.692913,8.692913 0 1 0 -17.38582,0 8.692913,8.692913 0 1 0 17.38582,0 z"
         inkscape:connector-curvature="0" />
      <path
         id="path29"
         style="fill:none;stroke:#000000;stroke-width:0.89999998;stroke-linecap:round"
         d="m 11.194858,1124.522 a 8.692913,8.692913 0 1 0 -17.385826,0 8.692913,8.692913 0 1 0 17.385826,0 z"
         inkscape:connector-curvature="0" />
      <path
         id="path31"
         style="fill:none;stroke:#000000;stroke-width:0.89999998;stroke-linecap:round"
         d="m -101.23465,1193.8764 a 22.677165,22.677165 0 1 0 -45.35433,0 22.677165,22.677165 0 1 0 45.35433,0 z"
         inkscape:connector-curvature="0" />
      <path
         id="path33"
         style="fill:none;stroke:#000000;stroke-width:0.89999998;stroke-linecap:round"
         d="m -241.63265,1124.522 a 8.692913,8.692913 0 1 0 -17.38583,0 8.692913,8.692913 0 1 0 17.38583,0 z"
         inkscape:connector-curvature="0" />
      <path
         id="path35"
         style="fill:none;stroke:#000000;stroke-width:0.89999998;stroke-linecap:round"
         d="m -29.423622,1353.9394 v -65.9535"
         inkscape:connector-curvature="0" />
      <path
         id="path37"
         style="fill:none;stroke:#000000;stroke-width:0.89999998;stroke-linecap:round"
         d="m -218.4,1353.9394 v -65.9535"
         inkscape:connector-curvature="0" />
      <path
         id="path39"
         style="fill:none;stroke:#000000;stroke-width:0.89999998;stroke-linecap:round"
         d="m -101.55182,1357.7189 h 68.34867"
         inkscape:connector-curvature="0" />
      <path
         id="path41"
         style="fill:none;stroke:#000000;stroke-width:0.89999998;stroke-linecap:round"
         d="m -214.62047,1357.7189 h 68.34867"
         inkscape:connector-curvature="0" />
      <path
         id="path43"
         style="fill:none;stroke:#000000;stroke-width:0.89999998;stroke-linecap:round"
         d="m -101.55182,1357.7189 a 3.779528,3.779528 0 0 0 -3.72667,3.1496"
         inkscape:connector-curvature="0" />
      <path
         id="path45"
         style="fill:none;stroke:#000000;stroke-width:0.89999998;stroke-linecap:round"
         d="m -142.54513,1360.8685 a 3.779528,3.779528 0 0 0 -3.72667,-3.1496"
         inkscape:connector-curvature="0" />
      <path
         id="path47"
         style="fill:none;stroke:#000000;stroke-width:0.89999998;stroke-linecap:round"
         d="m -218.4,1287.9859 a 3.779528,3.779528 0 0 0 -1.04987,-2.6142"
         inkscape:connector-curvature="0" />
      <path
         id="path49"
         style="fill:none;stroke:#000000;stroke-width:0.89999998;stroke-linecap:round"
         d="m -250.62132,1155.8814 a 11.338583,11.338583 0 0 0 -6.6771,-13.7952"
         inkscape:connector-curvature="0" />
      <path
         id="path51"
         style="fill:none;stroke:#000000;stroke-width:0.89999998;stroke-linecap:round"
         d="m -239.25835,1109.2042 a 11.338583,11.338583 0 0 0 15.2224,-1.7805"
         inkscape:connector-curvature="0" />
      <path
         id="path53"
         style="fill:none;stroke:#000000;stroke-width:0.89999998;stroke-linecap:round"
         d="m -23.787667,1107.4237 a 11.338583,11.338583 0 0 0 15.222398,1.7805"
         inkscape:connector-curvature="0" />
      <path
         id="path55"
         style="fill:none;stroke:#000000;stroke-width:0.89999998;stroke-linecap:round"
         d="m 9.474798,1142.0862 a 18.897638,18.897638 0 1 0 -18.040067,-32.882"
         inkscape:connector-curvature="0" />
      <path
         id="path57"
         style="fill:none;stroke:#000000;stroke-width:0.89999998;stroke-linecap:round"
         d="m 9.474798,1142.0862 a 11.338583,11.338583 0 0 0 -6.677104,13.7952"
         inkscape:connector-curvature="0" />
      <path
         id="path59"
         style="fill:none;stroke:#000000;stroke-width:0.89999998;stroke-linecap:round"
         d="m -28.373753,1285.3717 a 3.779528,3.779528 0 0 0 -1.049869,2.6142"
         inkscape:connector-curvature="0" />
      <path
         id="path61"
         style="fill:none;stroke:#000000;stroke-width:0.89999998;stroke-linecap:round"
         d="m -33.20315,1357.7189 a 3.779528,3.779528 0 0 0 3.779528,-3.7795"
         inkscape:connector-curvature="0" />
      <path
         id="path63"
         style="fill:none;stroke:#000000;stroke-width:0.89999998;stroke-linecap:round"
         d="m -218.4,1353.9394 a 3.779528,3.779528 0 0 0 3.77953,3.7795"
         inkscape:connector-curvature="0" />
      <path
         id="path65"
         style="fill:none;stroke:#000000;stroke-width:0.89999998;stroke-linecap:round"
         d="m -23.787667,1107.4237 a 132.28346,132.28346 0 0 0 -200.248283,0"
         inkscape:connector-curvature="0" />
      <path
         id="path67"
         style="fill:none;stroke:#000000;stroke-width:0.89999998;stroke-linecap:round"
         d="m -250.62132,1155.8814 a 132.28346,132.28346 0 0 0 31.17145,129.4903"
         inkscape:connector-curvature="0" />
      <path
         id="path69"
         style="fill:none;stroke:#000000;stroke-width:0.89999998;stroke-linecap:round"
         d="M -28.373753,1285.3717 A 132.28346,132.28346 0 0 0 2.797694,1155.8814"
         inkscape:connector-curvature="0" />
      <path
         id="path71"
         style="fill:none;stroke:#000000;stroke-width:0.89999998;stroke-linecap:round"
         d="m -239.25835,1109.2042 a 18.897638,18.897638 0 1 0 -18.04007,32.882"
         inkscape:connector-curvature="0" />
      <path
         id="path73"
         style="fill:none;stroke:#000000;stroke-width:0.89999998;stroke-linecap:round"
         d="m -142.54513,1360.8685 a 18.897638,18.897638 0 0 0 37.26664,0"
         inkscape:connector-curvature="0" />
    </g>
  </g>
</svg>
