<?xml version="1.0" encoding="UTF-8" standalone="no"?>
<svg
   xmlns:dc="http://purl.org/dc/elements/1.1/"
   xmlns:cc="http://creativecommons.org/ns#"
   xmlns:rdf="http://www.w3.org/1999/02/22-rdf-syntax-ns#"
   xmlns:svg="http://www.w3.org/2000/svg"
   xmlns="http://www.w3.org/2000/svg"
   xmlns:sodipodi="http://sodipodi.sourceforge.net/DTD/sodipodi-0.dtd"
   xmlns:inkscape="http://www.inkscape.org/namespaces/inkscape"
   width="793.700787402"
   height="1122.51968504"
   version="1.1"
   id="svg135"
   sodipodi:docname="MotorCover220L4.svg"
   inkscape:version="0.92.4 (5da689c313, 2019-01-14)">
  <metadata
     id="metadata139">
    <rdf:RDF>
      <cc:Work
         rdf:about="">
        <dc:format>image/svg+xml</dc:format>
        <dc:type
           rdf:resource="http://purl.org/dc/dcmitype/StillImage" />
        <dc:title></dc:title>
      </cc:Work>
    </rdf:RDF>
  </metadata>
  <sodipodi:namedview
     pagecolor="#ffffff"
     bordercolor="#666666"
     borderopacity="1"
     objecttolerance="10"
     gridtolerance="10"
     guidetolerance="10"
     inkscape:pageopacity="0"
     inkscape:pageshadow="2"
     inkscape:window-width="1920"
     inkscape:window-height="986"
     id="namedview137"
     showgrid="false"
     inkscape:zoom="1.3594417"
     inkscape:cx="506.04877"
     inkscape:cy="245.0492"
     inkscape:window-x="-11"
     inkscape:window-y="-11"
     inkscape:window-maximized="1"
     inkscape:current-layer="g133" />
  <desc
     id="desc10">C:\Users\vk9335uy\Desktop\Project\Schematics &amp; Datasheets\Motor Cover\ProperCover\MotorCover220L4.DXF - scale = 1.000000, origin = (0.000000, 0.000000), method = file</desc>
  <defs
     id="defs25">
    <marker
       id="DistanceX"
       orient="auto"
       refX="0.0"
       refY="0.0"
       style="overflow:visible">
      <path
         d="M 3,-3 L -3,3 M 0,-5 L  0,5"
         style="stroke:#000000; stroke-width:0.5"
         id="path12" />
    </marker>
    <pattern
       height="8"
       id="Hatch"
       patternUnits="userSpaceOnUse"
       width="8"
       x="0"
       y="0">
      <path
         d="M8 4 l-4,4"
         linecap="square"
         stroke="#000000"
         stroke-width="0.25"
         id="path15" />
      <path
         d="M6 2 l-4,4"
         linecap="square"
         stroke="#000000"
         stroke-width="0.25"
         id="path17" />
      <path
         d="M4 0 l-4,4"
         linecap="square"
         stroke="#000000"
         stroke-width="0.25"
         id="path19" />
    </pattern>
    <symbol
       id="*Model_Space" />
    <symbol
       id="*Paper_Space" />
    <symbol
       id="*Paper_Space0" />
  </defs>
  <g
     inkscape:groupmode="layer"
     inkscape:label="0"
     id="g133">
    <g
       id="g190"
       transform="translate(759.13518,-289.82486)">
      <path
         id="path27"
         style="fill:none;stroke:#000000;stroke-width:0.89999998;stroke-linecap:round"
         d="m -115.2189,1382.1788 a 8.692913,8.692913 0 1 0 -17.38582,0 8.692913,8.692913 0 1 0 17.38582,0 z"
         inkscape:connector-curvature="0" />
      <path
         id="path29"
         style="fill:none;stroke:#000000;stroke-width:0.89999998;stroke-linecap:round"
         d="m 8.806488,1142.1788 a 8.6929135,8.6929135 0 1 0 -17.385827,0 8.6929135,8.6929135 0 1 0 17.385827,0 z"
         inkscape:connector-curvature="0" />
      <path
         id="path31"
         style="fill:none;stroke:#000000;stroke-width:0.89999998;stroke-linecap:round"
         d="m -239.24428,1142.1788 a 8.6929135,8.6929135 0 1 0 -17.38583,0 8.6929135,8.6929135 0 1 0 17.38583,0 z"
         inkscape:connector-curvature="0" />
      <path
         id="path33"
         style="fill:none;stroke:#000000;stroke-width:0.89999998;stroke-linecap:round"
         d="m -144.13228,1267.0922 v 2.4567"
         inkscape:connector-curvature="0" />
      <path
         id="path35"
         style="fill:none;stroke:#000000;stroke-width:0.89999998;stroke-linecap:round"
         d="m -139.78583,1265.2024 h -2.45669"
         inkscape:connector-curvature="0" />
      <path
         id="path37"
         style="fill:none;stroke:#000000;stroke-width:0.89999998;stroke-linecap:round"
         d="m -137.89606,1269.5489 v -2.4567"
         inkscape:connector-curvature="0" />
      <path
         id="path39"
         style="fill:none;stroke:#000000;stroke-width:0.89999998;stroke-linecap:round"
         d="m -109.92756,1267.0922 v 2.4567"
         inkscape:connector-curvature="0" />
      <path
         id="path41"
         style="fill:none;stroke:#000000;stroke-width:0.89999998;stroke-linecap:round"
         d="m -105.5811,1265.2024 h -2.4567"
         inkscape:connector-curvature="0" />
      <path
         id="path43"
         style="fill:none;stroke:#000000;stroke-width:0.89999998;stroke-linecap:round"
         d="m -103.69134,1269.5489 v -2.4567"
         inkscape:connector-curvature="0" />
      <path
         id="path45"
         style="fill:none;stroke:#000000;stroke-width:0.89999998;stroke-linecap:round"
         d="m -101.80158,1271.4386 h 47.153331"
         inkscape:connector-curvature="0" />
      <path
         id="path47"
         style="fill:none;stroke:#000000;stroke-width:0.89999998;stroke-linecap:round"
         d="m -50.868721,1267.6591 v -4.9134"
         inkscape:connector-curvature="0" />
      <path
         id="path49"
         style="fill:none;stroke:#000000;stroke-width:0.89999998;stroke-linecap:round"
         d="M -54.648249,1258.9662 H -114.32231"
         inkscape:connector-curvature="0" />
      <path
         id="path51"
         style="fill:none;stroke:#000000;stroke-width:0.89999998;stroke-linecap:round"
         d="M -133.50131,1258.9662 H -244.49814"
         inkscape:connector-curvature="0" />
      <path
         id="path53"
         style="fill:none;stroke:#000000;stroke-width:0.89999998;stroke-linecap:round"
         d="m -33.27874,1370.8402 v -60.4927"
         inkscape:connector-curvature="0" />
      <path
         id="path55"
         style="fill:none;stroke:#000000;stroke-width:0.89999998;stroke-linecap:round"
         d="m -214.54488,1370.8402 v -60.4927"
         inkscape:connector-curvature="0" />
      <path
         id="path57"
         style="fill:none;stroke:#000000;stroke-width:0.89999998;stroke-linecap:round"
         d="m -97.455118,1374.6197 h 60.39685"
         inkscape:connector-curvature="0" />
      <path
         id="path59"
         style="fill:none;stroke:#000000;stroke-width:0.89999998;stroke-linecap:round"
         d="m -210.76535,1374.6197 h 60.39685"
         inkscape:connector-curvature="0" />
      <path
         id="path61"
         style="fill:none;stroke:#000000;stroke-width:0.89999998;stroke-linecap:round"
         d="m -136.0063,1271.4386 h 24.18898"
         inkscape:connector-curvature="0" />
      <path
         id="path63"
         style="fill:none;stroke:#000000;stroke-width:0.89999998;stroke-linecap:round"
         d="m -235.09017,1271.4386 h 89.06812"
         inkscape:connector-curvature="0" />
      <path
         id="path65"
         style="fill:none;stroke:#000000;stroke-width:0.89999998;stroke-linecap:round"
         d="m -146.02205,1271.4386 a 1.889764,1.889764 0 0 0 1.88977,-1.8897"
         inkscape:connector-curvature="0" />
      <path
         id="path67"
         style="fill:none;stroke:#000000;stroke-width:0.89999998;stroke-linecap:round"
         d="m -142.24252,1265.2024 a 1.889764,1.889764 0 0 0 -1.88976,1.8898"
         inkscape:connector-curvature="0" />
      <path
         id="path69"
         style="fill:none;stroke:#000000;stroke-width:0.89999998;stroke-linecap:round"
         d="m -137.89606,1267.0922 a 1.889764,1.889764 0 0 0 -1.88977,-1.8898"
         inkscape:connector-curvature="0" />
      <path
         id="path71"
         style="fill:none;stroke:#000000;stroke-width:0.89999998;stroke-linecap:round"
         d="m -137.89606,1269.5489 a 1.889764,1.889764 0 0 0 1.88976,1.8897"
         inkscape:connector-curvature="0" />
      <path
         id="path73"
         style="fill:none;stroke:#000000;stroke-width:0.89999998;stroke-linecap:round"
         d="m -111.81732,1271.4386 a 1.889764,1.889764 0 0 0 1.88976,-1.8897"
         inkscape:connector-curvature="0" />
      <path
         id="path75"
         style="fill:none;stroke:#000000;stroke-width:0.89999998;stroke-linecap:round"
         d="m -108.0378,1265.2024 a 1.889764,1.889764 0 0 0 -1.88976,1.8898"
         inkscape:connector-curvature="0" />
      <path
         id="path77"
         style="fill:none;stroke:#000000;stroke-width:0.89999998;stroke-linecap:round"
         d="m -103.69134,1267.0922 a 1.889764,1.889764 0 0 0 -1.88976,-1.8898"
         inkscape:connector-curvature="0" />
      <path
         id="path79"
         style="fill:none;stroke:#000000;stroke-width:0.89999998;stroke-linecap:round"
         d="m -103.69134,1269.5489 a 1.889764,1.889764 0 0 0 1.88976,1.8897"
         inkscape:connector-curvature="0" />
      <path
         id="path81"
         style="fill:none;stroke:#000000;stroke-width:0.89999998;stroke-linecap:round"
         d="m -54.648249,1271.4386 a 3.779528,3.779528 0 0 0 3.779528,-3.7795"
         inkscape:connector-curvature="0" />
      <path
         id="path83"
         style="fill:none;stroke:#000000;stroke-width:0.89999998;stroke-linecap:round"
         d="m -248.0448,1256.4928 a 3.779528,3.779528 0 0 0 3.54666,2.4734"
         inkscape:connector-curvature="0" />
      <path
         id="path85"
         style="fill:none;stroke:#000000;stroke-width:0.89999998;stroke-linecap:round"
         d="m -250.54562,1172.5307 a 11.338583,11.338583 0 0 0 -5.80579,-13.4309"
         inkscape:connector-curvature="0" />
      <path
         id="path87"
         style="fill:none;stroke:#000000;stroke-width:0.89999998;stroke-linecap:round"
         d="m -238.07602,1126.0581 a 11.338583,11.338583 0 0 0 14.46257,-2.2205"
         inkscape:connector-curvature="0" />
      <path
         id="path89"
         style="fill:none;stroke:#000000;stroke-width:0.89999998;stroke-linecap:round"
         d="m -24.210169,1123.8376 a 11.338583,11.338583 0 0 0 14.462563,2.2205"
         inkscape:connector-curvature="0" />
      <path
         id="path91"
         style="fill:none;stroke:#000000;stroke-width:0.89999998;stroke-linecap:round"
         d="M 8.527792,1159.0998 A 18.897638,18.897638 0 1 0 -9.747606,1126.0581"
         inkscape:connector-curvature="0" />
      <path
         id="path93"
         style="fill:none;stroke:#000000;stroke-width:0.89999998;stroke-linecap:round"
         d="m 8.527792,1159.0998 a 11.338583,11.338583 0 0 0 -5.805796,13.4309"
         inkscape:connector-curvature="0" />
      <path
         id="path95"
         style="fill:none;stroke:#000000;stroke-width:0.89999998;stroke-linecap:round"
         d="m -31.027368,1304.9653 a 7.559055,7.559055 0 0 0 -2.251372,5.3822"
         inkscape:connector-curvature="0" />
      <path
         id="path97"
         style="fill:none;stroke:#000000;stroke-width:0.89999998;stroke-linecap:round"
         d="m -37.058268,1374.6197 a 3.779528,3.779528 0 0 0 3.779528,-3.7795"
         inkscape:connector-curvature="0" />
      <path
         id="path99"
         style="fill:none;stroke:#000000;stroke-width:0.89999998;stroke-linecap:round"
         d="m -97.455118,1374.6197 a 7.559055,7.559055 0 0 0 -7.559052,7.5591"
         inkscape:connector-curvature="0" />
      <path
         id="path101"
         style="fill:none;stroke:#000000;stroke-width:0.89999998;stroke-linecap:round"
         d="m -142.80945,1382.1788 a 7.559055,7.559055 0 0 0 -7.55905,-7.5591"
         inkscape:connector-curvature="0" />
      <path
         id="path103"
         style="fill:none;stroke:#000000;stroke-width:0.89999998;stroke-linecap:round"
         d="m -214.54488,1370.8402 a 3.779528,3.779528 0 0 0 3.77953,3.7795"
         inkscape:connector-curvature="0" />
      <path
         id="path105"
         style="fill:none;stroke:#000000;stroke-width:0.89999998;stroke-linecap:round"
         d="m -214.54488,1310.3475 a 7.559055,7.559055 0 0 0 -2.25137,-5.3822"
         inkscape:connector-curvature="0" />
      <path
         id="path107"
         style="fill:none;stroke:#000000;stroke-width:0.89999998;stroke-linecap:round"
         d="m -235.09017,1271.4386 a 3.779528,3.779528 0 0 0 -3.26995,5.6749"
         inkscape:connector-curvature="0" />
      <path
         id="path109"
         style="fill:none;stroke:#000000;stroke-width:0.89999998;stroke-linecap:round"
         d="m -50.868721,1262.7457 a 3.779528,3.779528 0 0 0 -3.779528,-3.7795"
         inkscape:connector-curvature="0" />
      <path
         id="path111"
         style="fill:none;stroke:#000000;stroke-width:0.89999998;stroke-linecap:round"
         d="m -24.210169,1123.8376 a 132.28346,132.28346 0 0 0 -199.403281,0"
         inkscape:connector-curvature="0" />
      <path
         id="path113"
         style="fill:none;stroke:#000000;stroke-width:0.89999998;stroke-linecap:round"
         d="m -238.36012,1277.1135 a 132.28346,132.28346 0 0 0 21.56387,27.8518"
         inkscape:connector-curvature="0" />
      <path
         id="path115"
         style="fill:none;stroke:#000000;stroke-width:0.89999998;stroke-linecap:round"
         d="M -31.027368,1304.9653 A 132.28346,132.28346 0 0 0 2.721996,1172.5307"
         inkscape:connector-curvature="0" />
      <path
         id="path117"
         style="fill:none;stroke:#000000;stroke-width:0.89999998;stroke-linecap:round"
         d="m -114.32231,1258.9662 a 49.133858,49.133858 0 1 0 -19.179,0"
         inkscape:connector-curvature="0" />
      <path
         id="path119"
         style="fill:none;stroke:#000000;stroke-width:0.89999998;stroke-linecap:round"
         d="m -238.07602,1126.0581 a 18.897638,18.897638 0 1 0 -18.27539,33.0417"
         inkscape:connector-curvature="0" />
      <path
         id="path121"
         style="fill:none;stroke:#000000;stroke-width:0.89999998;stroke-linecap:round"
         d="m -142.80945,1382.1788 a 18.897638,18.897638 0 0 0 37.79528,0"
         inkscape:connector-curvature="0" />
      <path
         id="path123"
         style="fill:none;stroke:#000000;stroke-width:0.89999998;stroke-linecap:round"
         d="m -250.54562,1172.5307 a 132.28346,132.28346 0 0 0 2.50082,83.9621"
         inkscape:connector-curvature="0" />
    </g>
  </g>
</svg>
